# xmcd CD database file
# 
# Track frame offsets:
#       187
#       12562
#       23812
#       36305
#       45965
#       56017
#       68905
#       82155
#       94020
#       105825
#       119605
#       132640
#       146375
#       165765
#       181867
#       192932
# 
# Disc length: 2751 seconds
# 
# Revision: 2
# Processed by: cddbd v1.4PL0 Copyright (c) Steve Scherf et al.
# Submitted via: Steven_Parker 1
# 
DISCID=d20abd10
DTITLE=Jackie Wilson - The Very Best Of Jackie Wilson
DYEAR=1994
DGENRE=Blues
TTITLE0=Reet Pettite (The Finest Girl You Ever Want To Meet)
TTITLE1=To Be Loved
TTITLE2=Lonely Teardrops
TTITLE3=That's Why (I Love You So)
TTITLE4=I'll Be Satisfied
TTITLE5=Night
TTITLE6=Doggin' Around
TTITLE7=A Woman, A Lover, A Friend
TTITLE8=Am I The Man?
TTITLE9=Alone At Last
TTITLE10=My Empty Arms
TTITLE11=Baby Workout
TTITLE12=Danny Boy (Version II)
TTITLE13=No Pity (In The Naked City)
TTITLE14=Whispers (Gettin' Louder)
TTITLE15=(Your Love Keeps Lifting Me) Higher And Higher
EXTD=
EXTT0=
EXTT1=
EXTT2=
EXTT3=
EXTT4=
EXTT5=
EXTT6=
EXTT7=
EXTT8=
EXTT9=
EXTT10=
EXTT11=
EXTT12=
EXTT13=
EXTT14=
EXTT15=
PLAYORDER=
